<mxfile host="app.diagrams.net" modified="2021-08-06T08:48:08.091Z" agent="5.0 (Windows NT 10.0; Win64; x64) AppleWebKit/537.36 (KHTML, like Gecko) Chrome/92.0.4515.131 Safari/537.36" etag="8fuHiIlJ258dXBzykFW-" version="14.9.4" type="github">
  <diagram id="axRk6ZJWnkuo0c2mRVUk" name="Page-1">
    <mxGraphModel dx="782" dy="468" grid="1" gridSize="10" guides="1" tooltips="1" connect="1" arrows="1" fold="1" page="1" pageScale="1" pageWidth="827" pageHeight="1169" math="0" shadow="0">
      <root>
        <mxCell id="0" />
        <mxCell id="1" parent="0" />
        <mxCell id="uUWQa_gwmOW-N3FRUY2a-2" value="Tree Container" style="swimlane;startSize=20;horizontal=1;containerType=tree;" vertex="1" parent="1">
          <mxGeometry x="200" y="80" width="400" height="320" as="geometry" />
        </mxCell>
        <mxCell id="uUWQa_gwmOW-N3FRUY2a-3" value="" style="edgeStyle=elbowEdgeStyle;elbow=vertical;startArrow=none;endArrow=none;rounded=0;" edge="1" parent="uUWQa_gwmOW-N3FRUY2a-2" source="uUWQa_gwmOW-N3FRUY2a-4" target="uUWQa_gwmOW-N3FRUY2a-5">
          <mxGeometry relative="1" as="geometry" />
        </mxCell>
        <mxCell id="uUWQa_gwmOW-N3FRUY2a-4" value="Parent" style="whiteSpace=wrap;html=1;treeFolding=1;treeMoving=1;newEdgeStyle={&quot;edgeStyle&quot;:&quot;elbowEdgeStyle&quot;,&quot;startArrow&quot;:&quot;none&quot;,&quot;endArrow&quot;:&quot;none&quot;};" vertex="1" parent="uUWQa_gwmOW-N3FRUY2a-2">
          <mxGeometry x="60" y="50" width="120" height="40" as="geometry" />
        </mxCell>
        <mxCell id="uUWQa_gwmOW-N3FRUY2a-5" value="Child" style="whiteSpace=wrap;html=1;treeFolding=1;treeMoving=1;newEdgeStyle={&quot;edgeStyle&quot;:&quot;elbowEdgeStyle&quot;,&quot;startArrow&quot;:&quot;none&quot;,&quot;endArrow&quot;:&quot;none&quot;};" vertex="1" parent="uUWQa_gwmOW-N3FRUY2a-2">
          <mxGeometry x="60" y="220" width="120" height="40" as="geometry" />
        </mxCell>
      </root>
    </mxGraphModel>
  </diagram>
</mxfile>
